# Blender 4.0.2
# www.blender.org
mtllib Mature-Tree.mtl
o Ash.039
v 28.624201 22.032095 -38.116230
v 28.976358 22.371235 -38.923416
v 29.390089 22.273815 -38.158653
v 28.176750 22.031391 -39.056087
v 30.324181 21.409206 -41.381599
v 30.568359 21.839283 -40.259510
v 29.832500 22.012253 -40.574150
v 31.672548 13.077650 -37.221176
v 32.504150 13.172377 -39.746914
v 31.015127 12.960659 -39.487087
v 29.899317 13.512807 -43.012379
v 30.686543 12.825483 -41.793907
v 31.805536 13.815111 -42.215641
v 27.689623 13.061948 -42.584042
v 26.250523 13.201753 -41.022968
v 29.117960 12.478256 -41.425293
v 29.721016 13.144606 -39.458912
v 29.718126 13.145340 -39.454735
v 29.619249 13.170900 -39.306198
v 29.494240 21.711937 -37.660030
v 30.143742 22.547564 -38.813232
v 30.425303 22.043266 -38.436222
v 29.547491 20.378893 -36.504124
v 30.496553 21.372721 -38.267109
v 30.901396 20.341549 -37.451057
v 29.497551 21.151783 -37.483597
v 30.932158 21.285299 -40.244560
v 29.523605 19.619284 -36.483696
v 30.848457 19.448112 -37.453712
v 30.992413 20.693893 -40.222481
v 29.354961 22.547564 -39.718708
v 28.460930 21.535454 -37.665001
v 31.563564 19.708269 -40.033623
v 28.453302 21.054752 -37.548851
v 28.143869 20.348425 -36.599026
v 29.800840 18.331394 -35.832348
v 31.479717 18.293114 -37.019630
v 31.497919 18.921551 -39.937153
v 28.149582 19.667879 -36.577034
v 29.944405 17.515457 -36.014885
v 31.627567 17.640068 -37.086487
v 32.234501 17.759052 -39.772560
v 27.901917 18.592175 -35.981136
v 27.798479 21.523972 -38.963051
v 32.321396 17.196630 -39.557487
v 28.294466 22.088345 -40.289658
v 30.558525 20.980377 -41.771404
v 27.712629 21.043503 -38.865402
v 30.028370 16.043468 -36.253128
v 31.691572 16.417099 -37.322952
v 27.965755 17.815224 -36.143578
v 27.102650 20.541000 -38.252804
v 30.587940 20.461861 -41.754215
v 28.874426 21.730534 -41.009296
v 32.371689 16.027140 -39.616703
v 31.019688 19.701237 -42.050602
v 27.132622 19.860222 -38.186035
v 29.651476 21.359205 -41.420662
v 30.343048 14.268665 -35.315746
v 32.397507 15.306203 -36.652054
v 33.144245 14.474564 -39.557041
v 27.891340 21.552486 -40.514874
v 30.944561 18.497723 -41.885487
v 29.655674 20.752876 -41.932224
v 27.967806 16.057491 -36.324497
v 26.424213 18.686083 -38.014404
v 27.766068 20.950220 -40.528183
v 31.374071 17.317413 -42.386364
v 28.580421 21.145065 -41.395935
v 29.640461 20.208580 -41.943668
v 29.962336 12.952065 -35.914574
v 31.388720 16.981632 -42.252262
v 26.383862 17.907021 -38.146465
v 27.184233 20.135689 -40.444725
v 29.746416 19.484676 -42.307674
v 27.816341 14.177337 -35.476097
v 31.513760 16.195148 -42.027908
v 28.561028 20.477564 -41.506287
v 27.234827 19.187565 -40.240948
v 29.727911 18.560379 -42.103024
v 32.002430 15.125696 -42.566051
v 28.280472 19.661394 -41.722870
v 26.449018 16.211632 -38.256653
v 27.955217 13.111283 -35.892506
v 29.754475 17.262335 -42.833866
v 29.719551 12.458471 -36.800571
v 28.287443 18.725536 -41.518906
v 26.334623 17.547726 -40.777187
v 29.240850 13.251010 -38.963066
v 26.017006 14.339407 -37.810921
v 29.654806 16.901320 -42.914921
v 27.884661 17.349365 -42.351715
v 29.656397 15.973273 -42.763981
v 26.194527 16.866007 -40.946465
v 26.353178 13.201752 -38.014904
v 29.818722 14.979797 -43.546089
v 26.397572 15.760462 -40.967693
v 27.718470 17.032413 -42.591793
v 27.839222 16.192570 -42.534920
v 25.859879 14.306517 -41.179256
v 27.469925 14.514954 -43.094921
v 29.206633 13.035863 -39.648590
v 29.255842 13.017640 -39.757427
v 29.170343 13.056498 -39.567654
v 29.170128 13.056569 -39.567341
v 29.171057 13.058561 -39.561230
v 29.067863 13.129362 -39.291714
v 29.409142 13.038924 -39.835732
v 29.656036 13.128803 -39.776054
v 29.506065 13.080391 -39.791641
v 29.505919 13.080356 -39.791615
v 29.506172 13.080445 -39.791561
v 29.507599 13.081163 -39.790554
v 29.668087 13.127823 -39.767002
v 29.686016 13.126364 -39.753517
v 29.681496 13.133451 -39.671429
v 29.696758 13.141579 -39.540760
v 29.223635 13.142720 -39.308105
v 29.213722 13.139665 -39.314232
v 29.205860 13.137077 -39.319611
v 29.125704 13.124882 -39.328461
v 29.200001 13.123137 -39.362633
v 29.368223 13.211544 -39.219074
v 29.372150 13.212364 -39.220158
v 29.574650 13.179584 -39.275406
v 29.604162 13.174791 -39.283649
v 29.604904 13.174596 -39.284824
v 29.192385 13.055776 -39.402447
v 29.604250 13.170073 -39.283432
v 29.639328 11.453062 -39.250439
v 29.797832 11.453062 -39.481255
v 29.364035 11.453062 -39.199310
v 29.654572 13.077104 -39.692917
v 29.746700 11.453062 -39.756550
v 29.240597 11.453062 -39.863926
v 29.515890 11.453062 -39.915054
v 29.082081 11.453062 -39.633110
v 29.133215 11.453062 -39.357819
v 29.616632 9.569998 -39.143452
v 29.775137 9.569998 -39.374268
v 29.341330 9.569998 -39.092323
v 29.724005 9.569998 -39.649559
v 29.110519 9.569998 -39.250832
v 29.493195 9.569998 -39.808067
v 29.059387 9.569998 -39.526123
v 29.217892 9.569998 -39.756939
vn -0.2765 0.9231 0.2672
vn -0.4109 0.8906 0.1949
vn 0.3687 0.8383 -0.4016
vn 0.1424 -0.9898 0.0098
vn 0.3705 -0.6859 -0.6263
vn -0.2622 -0.9522 -0.1564
vn -0.1420 -0.9870 0.0747
vn 0.3158 0.6749 0.6669
vn 0.3429 0.6583 0.6701
vn 0.4443 0.6567 0.6094
vn 0.2900 0.7584 0.5837
vn 0.5603 0.2580 0.7871
vn 0.5657 0.2508 0.7856
vn 0.8689 0.4947 0.0128
vn 0.8358 0.5490 0.0042
vn 0.5732 0.0040 0.8194
vn 0.5872 -0.0372 0.8086
vn 0.9663 0.1546 0.2060
vn 0.9720 0.1068 0.2094
vn -0.1994 0.9644 0.1737
vn -0.0909 0.9805 0.1741
vn -0.1142 0.6475 0.7535
vn -0.1801 0.6932 0.6978
vn 0.9035 0.4205 0.0831
vn 0.8536 0.5125 0.0932
vn -0.0872 0.2988 0.9503
vn -0.0449 0.2353 0.9709
vn -0.0589 0.7822 0.6202
vn -0.1113 0.8145 0.5694
vn 0.4976 0.5300 0.6866
vn 0.5610 0.4666 0.6838
vn 0.9635 -0.0579 0.2612
vn 0.9638 -0.0483 0.2623
vn 0.3786 0.8648 -0.3298
vn 0.3469 0.8785 -0.3284
vn -0.0667 0.0289 0.9974
vn -0.0681 0.0317 0.9972
vn 0.5743 -0.0812 0.8146
vn 0.5349 0.0347 0.8442
vn 0.8528 0.5093 0.1150
vn 0.8305 0.5435 0.1223
vn -0.0082 0.4499 0.8930
vn -0.0417 0.4915 0.8699
vn -0.7310 0.5747 0.3680
vn -0.7218 0.6010 0.3432
vn 0.9551 0.1933 0.2244
vn 0.9465 0.2320 0.2242
vn -0.4025 0.9154 0.0113
vn -0.3919 0.9200 0.0051
vn 0.7831 0.5044 -0.3637
vn 0.6951 0.6530 -0.3005
vn -0.8645 0.1310 0.4852
vn -0.8647 0.2438 0.4391
vn 0.5396 -0.1044 0.8354
vn 0.5568 -0.1295 0.8205
vn -0.0983 -0.2337 0.9673
vn -0.1052 -0.2118 0.9716
vn -0.5018 0.7644 0.4049
vn -0.4548 0.8552 0.2486
vn 0.9633 0.0887 -0.2534
vn 0.9641 0.0460 -0.2615
vn -0.0066 0.8460 -0.5331
vn -0.0988 0.8570 -0.5057
vn 0.9627 -0.0020 0.2707
vn 0.9596 0.0271 0.2799
vn 0.8509 0.4373 -0.2909
vn 0.8091 0.5450 -0.2201
vn -0.8447 0.0102 0.5351
vn -0.8454 0.0152 0.5340
vn -0.0237 0.7940 -0.6075
vn 0.0490 0.7857 -0.6166
vn 0.2029 0.5975 0.7758
vn 0.3944 0.4829 0.7818
vn 0.7968 0.5886 0.1362
vn 0.8892 0.4463 0.1008
vn -0.8044 0.5929 -0.0372
vn -0.7887 0.6130 -0.0470
vn 0.9596 -0.1117 -0.2584
vn 0.9629 -0.0948 -0.2528
vn -0.0068 0.6706 -0.7418
vn -0.0263 0.6445 -0.7641
vn -0.0353 -0.1616 0.9862
vn -0.0800 -0.1022 0.9915
vn -0.7081 0.4599 0.5359
vn -0.7045 0.4988 0.5049
vn -0.9850 0.1677 -0.0411
vn -0.9773 0.2045 -0.0547
vn 0.8168 0.4702 -0.3343
vn 0.8244 0.4472 -0.3469
vn -0.4137 0.6372 -0.6502
vn -0.4580 0.6145 -0.6424
vn -0.0964 0.6415 -0.7611
vn -0.1702 0.6011 -0.7808
vn 0.1808 -0.0223 -0.9833
vn 0.1921 0.0153 -0.9813
vn 0.6356 -0.4643 0.6167
vn 0.5803 -0.3736 0.7237
vn 0.8702 -0.3670 0.3288
vn 0.8502 -0.4562 0.2628
vn 0.9483 0.0255 -0.3165
vn 0.9436 -0.0865 -0.3197
vn -0.7747 -0.1898 0.6032
vn -0.8089 -0.0573 0.5852
vn -0.7152 0.6820 -0.1527
vn -0.8152 0.5763 -0.0585
vn 0.0760 0.3992 -0.9137
vn 0.1003 0.4586 -0.8829
vn -0.0728 0.4557 0.8872
vn -0.0287 0.4131 0.9103
vn 0.9420 0.0573 -0.3306
vn 0.9419 0.0552 -0.3313
vn -0.7514 0.1288 -0.6472
vn -0.7247 0.1655 -0.6689
vn -0.4370 0.0311 -0.8989
vn -0.3353 0.1631 -0.9279
vn -0.9983 -0.0473 -0.0342
vn -0.9979 -0.0589 -0.0263
vn 0.2196 -0.1460 -0.9646
vn 0.1610 -0.2164 -0.9629
vn 0.8642 0.4193 -0.2783
vn 0.8435 0.4928 -0.2134
vn -0.2551 0.4043 -0.8783
vn -0.3122 0.3425 -0.8861
vn -0.6117 0.3925 -0.6868
vn -0.6282 0.3791 -0.6795
vn -0.7870 -0.0641 0.6136
vn -0.7844 -0.0702 0.6163
vn -0.0224 -0.4085 0.9125
vn -0.0456 -0.3686 0.9285
vn 0.1800 0.4390 -0.8802
vn 0.2180 0.4822 -0.8485
vn 0.3529 -0.8552 0.3797
vn -0.0631 -0.8644 0.4988
vn -0.3835 -0.1923 -0.9033
vn -0.3878 -0.1990 -0.9000
vn -0.8542 0.4899 -0.1742
vn -0.8257 0.5227 -0.2122
vn -0.7766 -0.1397 -0.6143
vn -0.7899 -0.1689 -0.5896
vn 0.8450 -0.3573 -0.3980
vn 0.9210 -0.2236 -0.3189
vn 0.2949 -0.9548 -0.0363
vn -0.2368 -0.9280 -0.2877
vn -0.7377 0.3262 0.5911
vn -0.7344 0.3129 0.6023
vn 0.2606 -0.3482 -0.9004
vn 0.3502 0.1121 -0.9299
vn -0.2862 0.4656 -0.8374
vn -0.1849 0.5479 -0.8159
vn 0.3577 -0.2031 -0.9115
vn 0.3796 -0.1479 -0.9133
vn -0.9977 0.0429 0.0515
vn -0.9751 0.2145 -0.0568
vn -0.5391 0.5459 -0.6414
vn -0.5742 0.5216 -0.6310
vn -0.4370 -0.8715 -0.2226
vn 0.0025 -0.9990 -0.0444
vn 0.0883 -0.9576 -0.2743
vn 0.6514 -0.7572 -0.0484
vn -0.7629 -0.3190 0.5623
vn -0.7598 -0.3254 0.5629
vn 0.2583 0.5258 -0.8104
vn 0.2860 0.6211 -0.7297
vn -0.9989 -0.0401 0.0256
vn -0.9743 -0.1815 0.1334
vn -0.2283 0.2729 -0.9346
vn -0.0862 0.6299 -0.7719
vn 0.4077 -0.2925 -0.8650
vn 0.4079 -0.2923 -0.8650
vn -0.1729 -0.1584 -0.9721
vn -0.1348 -0.0862 -0.9871
vn -0.4811 0.6755 -0.5587
vn -0.7142 0.3034 -0.6308
vn -0.9712 0.2343 0.0430
vn -0.9352 0.3518 -0.0408
vn -0.7179 -0.1493 -0.6800
vn -0.7144 -0.1180 -0.6897
vn -0.0249 0.6159 -0.7875
vn -0.2436 0.3549 -0.9026
vn -0.9569 -0.2886 0.0327
vn -0.9438 -0.3271 0.0472
vn 0.0656 -0.8504 -0.5221
vn 0.0731 -0.8516 -0.5191
vn -0.7348 0.3547 -0.5781
vn -0.7342 0.3557 -0.5783
vn -0.1107 -0.3452 -0.9320
vn -0.1104 -0.3445 -0.9323
vn -0.2435 -0.9699 0.0083
vn 0.1122 -0.9497 0.2924
vn 0.2691 -0.9227 0.2761
vn 0.1109 -0.9493 0.2942
vn -0.1386 -0.9873 0.0776
vn 0.2692 -0.9227 0.2760
vn 0.2659 -0.9206 0.2859
vn 0.2684 -0.9224 0.2778
vn 0.2691 -0.9225 0.2767
vn -0.1387 -0.9873 0.0776
vn 0.1122 -0.9497 0.2925
vn 0.2690 -0.9227 0.2762
vn -0.1387 -0.9878 0.0715
vn -0.7054 -0.3276 -0.6285
vn -0.7069 -0.3379 -0.6214
vn -0.4758 -0.8782 0.0485
vn 0.8473 0.0404 0.5295
vn 0.8332 0.0489 0.5508
vn 0.8343 0.0276 0.5506
vn 0.8240 0.0299 0.5658
vn 0.8242 0.0300 0.5654
vn 0.2762 0.0497 0.9598
vn 0.2647 0.0102 0.9643
vn 0.1826 0.0226 0.9829
vn 0.8853 -0.4566 0.0882
vn 0.9110 -0.4043 -0.0813
vn 0.9572 0.0473 -0.2854
vn 0.9572 0.0472 -0.2854
vn 0.9812 0.0628 -0.1823
vn 0.3088 -0.8101 -0.4983
vn 0.3086 -0.8102 -0.4984
vn 0.3087 -0.8102 -0.4984
vn 0.3507 -0.5056 0.7883
vn 0.4718 -0.3909 0.7903
vn -0.4610 0.0647 -0.8850
vn 0.4249 -0.0291 -0.9048
vn -0.1769 0.0724 -0.9816
vn -0.1821 0.0733 -0.9805
vn -0.9823 0.0413 0.1825
vn -0.9898 0.0489 0.1338
vn -0.9897 0.0503 0.1338
vn 0.8241 0.0222 0.5660
vn 0.1823 0.0536 0.9818
vn 0.9829 -0.0222 -0.1826
vn -0.5653 0.0536 0.8232
vn -0.5653 0.0536 0.8231
vn 0.5653 -0.0536 -0.8232
vn 0.5653 -0.0536 -0.8231
vn -0.9829 0.0222 0.1826
vn -0.1823 -0.0536 -0.9818
vn -0.8241 -0.0222 -0.5660
vn -0.0000 -1.0000 -0.0000
vn 0.5277 -0.0099 -0.8494
vn -0.5280 0.0108 0.8492
vn -0.5662 0.0057 0.8243
vn -0.5661 0.0057 0.8243
vn -0.9917 0.0400 0.1221
vn -0.9917 0.0400 0.1220
vn 0.5534 0.0639 -0.8304
vn 0.5538 0.0640 -0.8302
vn 0.5649 0.0658 -0.8226
vn 0.5648 0.0658 -0.8226
vn -0.9082 0.0372 -0.4169
vn -0.9083 0.0372 -0.4167
vn -0.8224 0.0683 -0.5648
vn -0.8169 0.0684 -0.5728
vt 0.000000 1.000000
vt 0.569445 0.312500
vt 0.572014 0.312500
vt 0.597222 0.312500
vt 0.402778 0.312500
vt 0.625000 0.312500
vt 0.581449 0.312500
vt 0.430556 0.312500
vt 0.541667 0.312500
vt 0.458333 0.312500
vt 0.552097 0.312500
vt 0.549588 0.312500
vt 0.552027 0.312500
vt 0.000000 0.000000
vt 1.000000 0.000000
vt 1.000000 1.000000
vt 0.575306 1.000000
vt 0.447267 1.000000
vt 0.000000 0.500000
vt 1.000000 0.500000
vt 0.572067 1.000000
vt 0.424694 1.000000
vt 0.569445 0.688440
vt 0.541667 0.688440
vt 0.597222 0.688440
vt 0.513889 0.312500
vt 0.513889 0.688440
vt 0.625000 0.688440
vt 0.486111 0.312500
vt 0.486111 0.688440
vt 0.375000 0.312500
vt 0.402778 0.688440
vt 0.375000 0.688440
vt 0.458333 0.688440
vt 0.430556 0.688440
vt 0.543036 0.312500
vt 0.540903 0.312500
vt 0.540899 0.312500
vt 0.540911 0.312500
vt 0.538703 0.312500
vt 0.546977 0.312500
vt 0.553092 0.312500
vt 0.549352 0.312500
vt 0.549348 0.312500
vt 0.549354 0.312500
vt 0.549389 0.312500
vt 0.553219 0.312500
vt 0.553408 0.312500
vt 0.552825 0.312500
vt 0.552239 0.312500
vt 0.541485 0.312500
vt 0.541341 0.312500
vt 0.539832 0.312500
vt 0.541271 0.312500
vt 0.545180 0.312500
vt 0.545280 0.312500
vt 0.548715 0.312500
vt 0.549217 0.312500
vt 0.549235 0.312500
vt 0.036566 0.451685
vt 0.999999 0.474359
vt -0.000000 0.504008
vt 0.008309 0.503767
vt 0.130061 0.500000
vt 0.981954 0.490977
vt 1.000000 0.490764
vt 0.874553 0.500000
vt 1.000000 0.504008
vt 0.016622 0.491001
vt 0.000000 0.490420
vt 0.814893 0.478521
vt 1.000000 0.465892
vt 0.350940 0.488030
vt 0.000000 0.490764
vt 0.000000 0.465892
vt 0.228591 0.465892
vt 0.313764 0.465892
vt 0.989632 0.465892
vt 0.070967 0.479352
vt 0.000000 0.474359
vt 0.172295 0.486480
vt 0.518330 0.434877
vt 1.000000 0.437567
vt 0.000522 0.465649
vt 0.000000 0.465659
vt 0.000001 0.450236
vt 0.437500 0.312500
vt 0.468750 0.688440
vt 0.437500 0.688440
vt 0.468750 0.312500
vt 0.406250 0.312500
vt 0.406250 0.688440
vt 0.500000 0.688440
vt 0.500000 0.312500
vt 0.531250 0.688440
vt 0.531250 0.312500
vt 0.593750 0.312500
vt 0.593750 0.688440
vt 0.562500 0.688440
vt 0.562500 0.312500
vt 0.610485 0.045765
vt 0.389515 0.045765
vt 0.500000 0.000000
vt 0.343750 0.156250
vt 0.656250 0.156250
vt 0.389515 0.266735
vt 0.610485 0.266735
vt 0.385823 0.483208
vt 1.000000 0.490420
vt 0.425228 0.483237
vt 0.351699 0.482467
vt 0.999533 0.465675
vt 1.000000 0.465659
vt 0.574222 0.443688
vt 0.000000 0.437567
vt 0.998649 0.450216
vt 1.000000 0.450236
s 0
usemtl Ash_tree_leaves1
f 1/1/1 3/1/1 2/1/1
f 1/1/2 2/1/2 4/1/2
f 5/1/3 7/1/3 6/1/3
f 8/2/4 10/3/4 9/4/4
f 11/5/5 13/6/5 12/7/5
f 14/8/6 16/9/6 15/10/6
f 17/11/7 19/12/7 18/13/7
f 20/14/8 22/15/8 21/16/8
f 20/14/9 21/16/9 3/1/9
f 23/14/10 25/15/10 24/16/10
f 23/14/11 24/16/11 26/1/11
f 26/14/12 24/15/12 22/16/12
f 26/14/13 22/16/13 20/1/13
f 22/14/14 6/16/14 21/1/14
f 22/14/15 27/15/15 6/16/15
f 28/14/16 25/16/16 23/1/16
f 28/14/17 29/15/17 25/16/17
f 24/14/18 27/16/18 22/1/18
f 24/14/19 30/15/19 27/16/19
f 31/17/20 3/1/20 21/16/20
f 31/17/21 2/18/21 3/1/21
f 32/14/22 20/15/22 3/16/22
f 32/14/23 3/16/23 1/1/23
f 25/14/24 30/16/24 24/1/24
f 25/14/25 33/15/25 30/16/25
f 34/14/26 26/15/26 20/16/26
f 34/14/27 20/16/27 32/1/27
f 35/14/28 23/15/28 26/16/28
f 35/14/29 26/16/29 34/1/29
f 36/19/30 37/20/30 29/16/30
f 36/19/31 29/16/31 28/1/31
f 29/14/32 33/16/32 25/1/32
f 29/14/33 38/15/33 33/16/33
f 7/21/34 31/22/34 21/1/34
f 7/21/35 21/1/35 6/16/35
f 39/14/36 28/15/36 23/16/36
f 39/14/37 23/16/37 35/1/37
f 40/14/38 37/20/38 36/19/38
f 40/14/39 41/15/39 37/20/39
f 37/19/40 38/16/40 29/1/40
f 37/19/41 42/20/41 38/16/41
f 43/19/42 36/20/42 28/16/42
f 43/19/43 28/16/43 39/1/43
f 44/14/44 32/15/44 1/16/44
f 44/14/45 1/16/45 4/1/45
f 41/14/46 42/20/46 37/19/46
f 41/14/47 45/15/47 42/20/47
f 46/1/48 2/18/48 31/17/48
f 46/1/49 4/16/49 2/18/49
f 27/14/50 5/16/50 6/1/50
f 27/14/51 47/15/51 5/16/51
f 48/14/52 34/15/52 32/16/52
f 48/14/53 32/16/53 44/1/53
f 49/14/54 41/16/54 40/1/54
f 49/14/55 50/15/55 41/16/55
f 51/14/56 40/15/56 36/20/56
f 51/14/57 36/20/57 43/19/57
f 52/14/58 35/15/58 34/16/58
f 52/14/59 34/16/59 48/1/59
f 30/14/60 47/16/60 27/1/60
f 30/14/61 53/15/61 47/16/61
f 54/1/62 31/22/62 7/21/62
f 54/1/63 46/16/63 31/22/63
f 50/14/64 45/16/64 41/1/64
f 50/14/65 55/15/65 45/16/65
f 33/14/66 53/16/66 30/1/66
f 33/14/67 56/15/67 53/16/67
f 57/14/68 39/15/68 35/16/68
f 57/14/69 35/16/69 52/1/69
f 58/1/70 7/1/70 5/1/70
f 58/1/71 54/1/71 7/1/71
f 59/14/72 60/15/72 50/16/72
f 59/14/73 50/16/73 49/1/73
f 60/14/74 55/16/74 50/1/74
f 60/14/75 61/15/75 55/16/75
f 62/14/76 44/15/76 4/16/76
f 62/14/77 4/16/77 46/1/77
f 38/14/78 56/16/78 33/1/78
f 38/14/79 63/15/79 56/16/79
f 47/14/80 58/16/80 5/1/80
f 47/14/81 64/15/81 58/16/81
f 65/14/82 49/15/82 40/16/82
f 65/14/83 40/16/83 51/1/83
f 66/19/84 43/20/84 39/16/84
f 66/19/85 39/16/85 57/1/85
f 67/14/86 48/15/86 44/16/86
f 67/14/87 44/16/87 62/1/87
f 42/19/88 63/16/88 38/1/88
f 42/19/89 68/20/89 63/16/89
f 69/14/90 46/16/90 54/1/90
f 69/14/91 62/15/91 46/16/91
f 64/14/92 54/16/92 58/1/92
f 64/14/93 69/15/93 54/16/93
f 53/14/94 64/16/94 47/1/94
f 53/14/95 70/15/95 64/16/95
f 71/9/96 60/23/96 59/24/96
f 71/9/97 8/2/97 60/23/97
f 8/2/98 61/25/98 60/23/98
f 8/2/99 9/4/99 61/25/99
f 45/14/100 68/20/100 42/19/100
f 45/14/101 72/15/101 68/20/101
f 73/14/102 51/15/102 43/20/102
f 73/14/103 43/20/103 66/19/103
f 74/14/104 52/15/104 48/16/104
f 74/14/105 48/16/105 67/1/105
f 56/14/106 70/16/106 53/1/106
f 56/14/107 75/15/107 70/16/107
f 76/14/108 59/15/108 49/16/108
f 76/14/109 49/16/109 65/1/109
f 55/14/110 72/16/110 45/1/110
f 55/14/111 77/15/111 72/16/111
f 78/14/112 62/16/112 69/1/112
f 78/14/113 67/15/113 62/16/113
f 70/14/114 69/16/114 64/1/114
f 70/14/115 78/15/115 69/16/115
f 79/14/116 57/15/116 52/16/116
f 79/14/117 52/16/117 74/1/117
f 63/14/118 75/16/118 56/1/118
f 63/14/119 80/15/119 75/16/119
f 61/14/120 77/16/120 55/1/120
f 61/14/121 81/15/121 77/16/121
f 75/14/122 78/16/122 70/1/122
f 75/14/123 82/15/123 78/16/123
f 82/14/124 67/16/124 78/1/124
f 82/14/125 74/15/125 67/16/125
f 83/14/126 65/15/126 51/16/126
f 83/14/127 51/16/127 73/1/127
f 84/26/128 71/9/128 59/24/128
f 84/26/129 59/24/129 76/27/129
f 68/19/130 80/16/130 63/1/130
f 68/19/131 85/20/131 80/16/131
f 71/9/132 86/9/132 8/2/132
f 71/9/133 84/26/133 86/9/133
f 80/14/134 82/16/134 75/1/134
f 80/14/135 87/15/135 82/16/135
f 88/19/136 66/20/136 57/16/136
f 88/19/137 57/16/137 79/1/137
f 87/14/138 74/16/138 82/1/138
f 87/14/139 79/15/139 74/16/139
f 9/4/140 81/28/140 61/25/140
f 9/4/141 13/6/141 81/28/141
f 86/9/142 10/3/142 8/2/142
f 86/9/143 89/9/143 10/3/143
f 90/14/144 76/15/144 65/16/144
f 90/14/145 65/16/145 83/1/145
f 72/14/146 85/20/146 68/19/146
f 72/14/147 91/15/147 85/20/147
f 85/19/148 87/16/148 80/1/148
f 85/19/149 92/20/149 87/16/149
f 77/14/150 91/16/150 72/1/150
f 77/14/151 93/15/151 91/16/151
f 94/14/152 73/15/152 66/20/152
f 94/14/153 66/20/153 88/19/153
f 92/19/154 79/16/154 87/1/154
f 92/19/155 88/20/155 79/16/155
f 84/26/156 89/9/156 86/9/156
f 84/26/157 95/29/157 89/9/157
f 10/3/158 13/6/158 9/4/158
f 10/3/159 12/7/159 13/6/159
f 95/29/160 84/26/160 76/27/160
f 95/29/161 76/27/161 90/30/161
f 81/14/162 93/16/162 77/1/162
f 81/14/163 96/15/163 93/16/163
f 97/14/164 83/15/164 73/16/164
f 97/14/165 73/16/165 94/1/165
f 91/14/166 92/20/166 85/19/166
f 91/14/167 98/15/167 92/20/167
f 13/31/168 96/32/168 81/33/168
f 13/31/169 11/5/169 96/32/169
f 93/14/170 98/16/170 91/1/170
f 93/14/171 99/15/171 98/16/171
f 98/14/172 88/20/172 92/19/172
f 98/14/173 94/15/173 88/20/173
f 100/14/174 90/15/174 83/16/174
f 100/14/175 83/16/175 97/1/175
f 99/14/176 94/16/176 98/1/176
f 99/14/177 97/15/177 94/16/177
f 96/14/178 99/16/178 93/1/178
f 96/14/179 101/15/179 99/16/179
f 15/10/180 95/29/180 90/30/180
f 15/10/181 90/30/181 100/34/181
f 11/5/182 12/7/182 16/9/182
f 11/5/183 16/9/183 14/8/183
f 101/14/184 97/16/184 99/1/184
f 101/14/185 100/15/185 97/16/185
f 11/5/186 101/35/186 96/32/186
f 11/5/187 14/8/187 101/35/187
f 95/29/188 15/10/188 16/9/188
f 102/9/189 95/29/189 16/9/189
f 16/9/190 103/36/190 102/9/190
f 95/29/189 102/9/189 104/37/189
f 95/29/191 104/37/191 105/38/191
f 95/29/189 105/38/189 106/39/189
f 95/29/189 106/39/189 107/40/189
f 103/36/190 16/9/190 108/41/190
f 95/29/189 107/40/189 89/9/189
f 16/9/190 109/42/190 108/41/190
f 109/42/190 16/9/190 12/7/190
f 10/3/192 109/42/192 12/7/192
f 108/41/193 109/42/193 110/43/193
f 111/44/194 108/41/194 110/43/194
f 110/43/195 109/42/195 112/45/195
f 112/45/196 109/42/196 113/46/196
f 109/42/197 10/3/197 114/47/197
f 114/47/192 10/3/192 115/48/192
f 115/48/192 10/3/192 116/49/192
f 116/49/192 10/3/192 117/50/192
f 117/50/192 10/3/192 17/11/192
f 107/40/198 118/9/198 89/9/198
f 107/40/189 119/51/189 118/9/189
f 107/40/198 120/52/198 119/51/198
f 121/53/189 120/52/189 107/40/189
f 120/52/189 121/53/189 122/54/189
f 89/9/190 118/9/190 123/55/190
f 89/9/199 123/55/199 124/56/199
f 125/57/192 89/9/192 124/56/192
f 126/58/192 89/9/192 125/57/192
f 126/58/192 10/3/192 89/9/192
f 19/12/192 10/3/192 126/58/192
f 17/11/192 10/3/192 19/12/192
f 19/12/200 126/58/200 127/59/200
f 14/8/201 100/34/201 101/35/201
f 14/8/202 15/10/202 100/34/202
usemtl Trunk5
f 106/60/203 128/61/203 107/61/203
f 126/62/204 129/19/204 127/63/204
f 127/63/205 129/19/205 19/64/205
f 19/64/206 129/19/206 130/14/206
f 19/64/206 130/14/206 18/65/206
f 18/65/207 130/14/207 131/15/207
f 18/65/208 131/15/208 17/66/208
f 125/67/209 129/20/209 126/68/209
f 125/67/210 132/14/210 129/20/210
f 132/14/211 130/15/211 129/20/211
f 132/14/210 125/67/210 124/69/210
f 132/14/210 124/69/210 123/70/210
f 116/71/212 133/72/212 115/72/212
f 117/73/213 133/72/213 116/71/213
f 17/74/214 133/72/214 117/73/214
f 17/74/215 131/14/215 133/72/215
f 133/72/216 131/14/216 134/15/216
f 115/75/217 133/75/217 114/76/217
f 133/75/218 109/77/218 114/76/218
f 133/75/219 113/78/219 109/77/219
f 121/79/220 128/80/220 122/81/220
f 107/80/221 128/80/221 121/79/221
f 108/82/222 135/15/222 103/83/222
f 111/84/223 135/15/223 108/82/223
f 110/85/224 135/15/224 111/84/224
f 110/85/225 136/14/225 135/15/225
f 137/14/226 138/15/226 128/61/226
f 105/86/227 137/14/227 128/61/227
f 105/86/228 128/61/228 106/60/228
f 139/87/229 131/88/229 130/89/229
f 139/87/229 140/90/229 131/88/229
f 141/91/230 130/89/230 132/92/230
f 141/91/230 139/87/230 130/89/230
f 140/90/231 134/93/231 131/88/231
f 140/90/231 142/94/231 134/93/231
f 143/31/232 132/92/232 138/33/232
f 143/31/233 141/91/233 132/92/233
f 142/94/234 136/95/234 134/93/234
f 142/94/235 144/96/235 136/95/235
f 145/97/236 138/28/236 137/98/236
f 145/97/236 143/6/236 138/28/236
f 144/96/237 135/99/237 136/95/237
f 144/96/237 146/100/237 135/99/237
f 146/100/238 137/98/238 135/99/238
f 146/100/238 145/97/238 137/98/238
f 143/101/239 139/102/239 141/103/239
f 143/101/239 140/104/239 139/102/239
f 145/105/239 140/104/239 143/101/239
f 145/105/239 142/106/239 140/104/239
f 146/107/239 142/106/239 145/105/239
f 142/106/239 146/107/239 144/94/239
f 119/108/240 123/109/240 118/110/240
f 119/108/241 132/15/241 123/109/241
f 120/111/242 132/15/242 119/108/242
f 120/111/243 138/14/243 132/15/243
f 122/81/244 138/14/244 120/111/244
f 122/81/245 128/80/245 138/14/245
f 113/78/246 133/75/246 134/14/246
f 113/78/247 134/14/247 112/112/247
f 112/112/248 134/14/248 136/15/248
f 112/112/249 136/15/249 110/113/249
f 135/14/250 102/114/250 103/115/250
f 135/14/251 104/116/251 102/114/251
f 104/116/252 135/14/252 137/15/252
f 104/116/253 137/15/253 105/117/253
